<svg width="256" height="256" viewBox="0 0 256 256" fill="none" xmlns="http://www.w3.org/2000/svg">
  <style>
      path {
          fill: rgba(41, 61, 76, 0.8);
      }
      @media (prefers-color-scheme: dark) {
          path {
              fill: rgba(253, 252, 229, 0.8);
          }
      }
  </style>

  <g clip-path="url(#clip0)">
  <path d="M227.104 40.3887V70.9062C215.385 73.9987 206.433 78.3932 200.248 84.0898C194.226 89.7865 189.343 97.1107 185.6 106.062C182.019 114.852 180.229 125.594 180.229 138.289C195.202 138.289 206.27 142.602 213.432 151.229C220.756 159.692 224.418 168.725 224.418 178.328C224.418 189.721 220.43 199.324 212.455 207.137C204.48 214.786 195.202 218.611 184.623 218.611C170.788 218.611 158.907 212.752 148.979 201.033C139.213 189.152 134.33 172.957 134.33 152.449C134.33 134.383 138.236 117.456 146.049 101.668C153.861 85.8802 164.441 72.3711 177.787 61.1406C191.296 49.9102 207.735 42.9928 227.104 40.3887ZM107.719 40.3887V70.9062C96 73.9987 87.0482 78.3932 80.8633 84.0898C74.8411 89.7865 69.9583 97.1107 66.2148 106.062C62.6341 114.852 60.8438 125.594 60.8438 138.289C75.9805 138.289 87.1296 142.602 94.291 151.229C101.452 159.692 105.033 168.725 105.033 178.328C105.033 189.721 101.046 199.324 93.0703 207.137C85.0951 214.786 75.8177 218.611 65.2383 218.611C51.5664 218.611 39.7663 212.752 29.8379 201.033C19.9095 189.152 14.9453 172.957 14.9453 152.449C14.9453 134.383 18.8516 117.456 26.6641 101.668C34.4766 85.8802 45.056 72.3711 58.4023 61.1406C71.9115 49.9102 88.3503 42.9928 107.719 40.3887Z" fill="black"/>
  </g>
  <defs>
  <clipPath id="clip0">
  <rect width="256" height="256" fill="white"/>
  </clipPath>
  </defs>

</svg>
